<svg width="231" height="147" viewBox="0 0 231 147" fill="none" xmlns="http://www.w3.org/2000/svg">
<g id="Asset 6 1" clip-path="url(#clip0_395_640)">
<g id="Layer 2">
<g id="Layer 1">
<path id="Vector" d="M12.0034 136.564C12.0034 139.141 9.44133 140.161 5.76378 140.161C3.15486 140.161 0.830078 138.481 0.830078 135.783C0.830078 133.654 2.27661 131.239 4.12687 129.702C3.70361 129.48 3.26827 129.283 2.82288 129.11L4.00919 126.365C9.70156 129.134 12.0034 132.278 12.0034 136.564ZM9.20407 136.73C9.22412 136.604 9.23213 136.476 9.22799 136.348C9.22799 134.432 8.23111 132.349 6.66595 131.236C5.00512 132.183 3.60451 134.171 3.60451 135.638C3.60451 136.466 4.38709 137.153 5.71594 137.153C7.02184 137.155 8.37366 137.037 9.20407 136.73Z" fill="white"/>
<path id="Vector_2" d="M17.0296 139.191C17.0296 136.659 16.8382 134.623 16.1762 131.381L19.142 130.648C19.759 133.654 20.0432 136.635 20.0432 138.931C20.0432 139.853 19.9963 140.445 19.8777 140.776C18.9755 143.258 14.6158 146.312 10.2227 147L9.9873 143.826C12.5254 143.545 17.0296 140.919 17.0296 139.191Z" fill="white"/>
<path id="Vector_3" d="M23.4854 139.995C23.6987 138.174 23.7934 136.587 23.7934 134.032C23.7934 131.287 23.6977 127.406 23.4854 120.898L26.3794 120.259C26.5449 126.933 26.6396 131.311 26.6396 134.458C26.6396 137.061 26.5439 138.812 26.3315 140.303L23.4854 139.995Z" fill="white"/>
<path id="Vector_4" d="M41.68 136.351C41.68 138.86 38.7142 140.469 34.7057 140.493C33.0399 140.488 31.3845 140.232 29.7949 139.735L30.3173 136.73C31.7565 137.155 33.2516 137.363 34.7525 137.346C36.4373 137.346 37.8838 137.085 38.8328 136.541C38.8516 136.455 38.8596 136.368 38.8568 136.28C38.8568 133.204 36.2479 130.885 32.7129 129.299L33.7566 126.456C39.2605 129.039 41.68 132.352 41.68 136.351Z" fill="white"/>
<path id="Vector_5" d="M58.5932 136.564C58.5932 139.141 56.0312 140.161 52.3536 140.161C49.7447 140.161 47.4199 138.481 47.4199 135.783C47.4199 133.654 48.8664 131.239 50.7167 129.702C50.2934 129.48 49.8581 129.283 49.4127 129.11L50.5981 126.365C56.2914 129.134 58.5932 132.278 58.5932 136.564ZM55.7939 136.73C55.8131 136.604 55.8208 136.476 55.8169 136.348C55.8169 134.432 54.8209 132.349 53.2558 131.236C51.5949 132.183 50.1943 134.171 50.1943 135.638C50.1943 136.466 50.9769 137.153 52.3058 137.153C53.6107 137.155 54.9635 137.037 55.7939 136.73Z" fill="white"/>
<path id="Vector_6" d="M70.0024 137.96V138.883C70.0024 139.523 69.7891 139.996 69.5241 139.996H69.1921C68.3378 139.996 67.3179 139.901 66.6779 139.168C66.654 139.996 66.5822 140.493 66.4645 140.777C65.5624 143.258 61.2027 146.312 56.8095 147L56.5723 143.806C59.1104 143.52 63.5227 140.966 63.6174 139.31C63.7839 136.447 63.6413 134.459 63.2615 131.358L66.323 130.767L66.7056 134.648C66.8472 136.186 67.5829 136.848 68.6975 136.848H69.5279C69.813 136.848 70.0024 137.322 70.0024 137.96ZM64.4756 129.039L62.2933 127.335C62.8865 126.436 63.5026 125.632 64.2622 124.949L66.3947 126.743C65.8513 127.643 65.2103 128.353 64.4756 129.039Z" fill="white"/>
<path id="Vector_7" d="M69.0537 138.883V137.96C69.0537 137.322 69.2451 136.848 69.5321 136.848H71.169C73.3512 136.848 75.4387 136.423 75.4387 134.979C75.4387 133.559 75.2254 131.5 74.8647 129.299L77.6879 128.353C78.0907 131.24 78.2811 133.606 78.2811 135.428C78.2811 138.032 75.6023 139.996 71.1642 139.996H69.5282C69.2651 139.996 69.0537 139.523 69.0537 138.883ZM71.1651 142.552L73.2527 144.35C72.7542 145.226 72.0664 145.912 71.3546 146.622L69.1963 144.942C69.7894 144.017 70.3826 143.262 71.1651 142.552ZM75.5535 142.743L77.5932 144.542C77.0957 145.441 76.4308 146.127 75.72 146.789L73.5607 145.133C74.1539 144.232 74.747 143.451 75.5535 142.741V142.743Z" fill="white"/>
<path id="Vector_8" d="M88.4578 137.96V138.883C88.4578 139.522 88.2444 139.995 87.9794 139.995C83.3299 139.995 82.1436 138.244 82.1436 133.488V120.851L84.9897 120.259V134.009C84.9897 136.067 85.3724 136.848 86.9118 136.848H87.9785C88.2684 136.848 88.4578 137.321 88.4578 137.96Z" fill="white"/>
<path id="Vector_9" d="M93.202 137.96V138.883C93.202 139.523 92.9886 139.996 92.7236 139.996H87.9832C87.7221 139.996 87.5049 139.519 87.5049 138.883V137.96C87.5049 137.322 87.6962 136.849 87.9832 136.849H92.7275C93.0126 136.849 93.202 137.322 93.202 137.96Z" fill="white"/>
<path id="Vector_10" d="M97.9462 137.96V138.883C97.9462 139.523 97.7329 139.996 97.4679 139.996H92.7274C92.4662 139.996 92.249 139.519 92.249 138.883V137.96C92.249 137.322 92.4404 136.849 92.7274 136.849H97.4717C97.7568 136.849 97.9462 137.322 97.9462 137.96Z" fill="white"/>
<path id="Vector_11" d="M115.501 131.878L115.214 134.954C113.387 134.954 111.489 135.688 109.569 136.895C107.22 138.386 104.611 139.995 100.222 139.995H97.4705C97.2094 139.995 96.9922 139.518 96.9922 138.882V137.96C96.9922 137.321 97.1835 136.848 97.4705 136.848H100.149C103.85 136.848 106.081 135.64 108.191 134.366C108.547 134.153 108.903 133.941 109.282 133.752C108.594 133.37 107.978 132.994 107.385 132.592C105.89 131.621 104.538 130.935 103.423 130.935C102.309 130.935 101.786 131.74 101.312 133.16L98.61 132.182C99.2797 130.384 100.223 127.898 103.426 127.898C105.252 127.898 107.008 128.964 109.001 130.241C110.091 130.928 111.254 131.662 112.606 132.276C113.547 132.004 114.522 131.87 115.501 131.878ZM106.154 142.551L108.265 144.373C107.744 145.248 107.079 145.958 106.344 146.664L104.162 144.936C104.759 144.042 105.371 143.237 106.154 142.551Z" fill="white"/>
<path id="Vector_12" d="M131.773 137.96V138.883C131.773 139.522 131.56 139.995 131.295 139.995H130.963C130.109 139.995 129.088 139.9 128.448 139.167C128.424 139.995 128.353 140.493 128.235 140.776C127.333 143.258 122.973 146.312 118.58 147L118.343 143.805C120.881 143.519 125.293 140.965 125.388 139.309C125.554 136.446 125.412 134.458 125.032 131.357L128.093 130.767L128.476 134.647C128.618 136.186 129.353 136.848 130.468 136.848H131.298C131.583 136.848 131.773 137.321 131.773 137.96Z" fill="white"/>
<path id="Vector_13" d="M136.521 137.96V138.883C136.521 139.523 136.308 139.996 136.043 139.996H131.299C131.037 139.996 130.82 139.519 130.82 138.883V137.96C130.82 137.322 131.012 136.849 131.299 136.849H136.043C136.33 136.849 136.521 137.322 136.521 137.96Z" fill="white"/>
<path id="Vector_14" d="M141.262 137.96V138.883C141.262 139.523 141.048 139.996 140.783 139.996H136.043C135.782 139.996 135.564 139.519 135.564 138.883V137.96C135.564 137.322 135.756 136.849 136.043 136.849H140.787C141.072 136.849 141.262 137.322 141.262 137.96Z" fill="white"/>
<path id="Vector_15" d="M154.404 137.96V138.882C154.404 139.522 154.19 139.995 153.925 139.995H152.478C149.94 139.995 148.659 139.877 147.544 139.427C146.495 139.808 145.386 140 144.27 139.995H140.783C140.522 139.995 140.305 139.518 140.305 138.882V137.96C140.305 137.321 140.496 136.848 140.783 136.848H143.345C142.396 136.091 141.732 135.168 141.732 134.271C141.732 131.312 145.053 127.148 147.544 127.148C149.608 127.148 151.315 128.615 152.099 131.053C152.368 131.935 152.504 132.852 152.502 133.775C152.502 134.123 152.479 134.471 152.431 134.816C152.335 135.643 151.743 136.33 151.031 136.851H153.933C154.213 136.848 154.404 137.321 154.404 137.96ZM144.557 134.079C144.557 134.671 146.146 135.901 147.523 136.587C148.34 135.901 149.107 135.157 149.819 134.362V134.127C149.819 132.186 148.918 129.961 147.542 129.961C146.551 129.961 144.557 132.919 144.557 134.079ZM147.714 124.495L145.532 122.791C146.106 121.868 146.718 121.063 147.501 120.377L149.612 122.2C149.093 123.051 148.454 123.824 147.714 124.495Z" fill="white"/>
<path id="Vector_16" d="M174.567 135.286C174.567 137.795 171.91 139.996 168.423 139.996C167.142 139.996 166.051 139.475 165.15 138.883C164.09 139.594 162.845 139.981 161.568 139.996C160.026 139.996 158.721 139.38 157.866 138.387C156.805 139.401 155.398 139.976 153.929 139.996C153.668 139.996 153.45 139.518 153.45 138.883V137.96C153.45 137.321 153.642 136.848 153.929 136.848C155.495 136.848 156.799 135.901 156.894 134.462L157.108 131.172L159.954 131.03C159.858 132.948 159.788 134.18 159.741 135.006C159.741 136.19 160.428 136.852 161.591 136.852C164.627 136.852 164.818 134.249 164.818 130.51L167.712 130.297C167.688 132.38 167.569 134.509 166.905 136.379C167.423 136.683 168.012 136.848 168.613 136.856C170.226 136.856 171.744 136.099 171.744 134.892C171.744 133.614 171.531 131.697 171.127 129.307L173.974 128.337C174.353 131.098 174.567 133.582 174.567 135.286Z" fill="white"/>
<path id="Vector_17" d="M199.498 137.96V138.883C199.498 139.523 199.285 139.996 199.02 139.996H198.878C198.172 140.004 197.475 139.824 196.861 139.475C196.766 143.19 193.374 144.989 188.559 144.989C183.269 144.989 181.205 142.67 181.205 138.881C181.205 136.704 181.779 134.03 182.581 130.315L185.355 131.001C184.667 134.03 184.05 136.989 184.05 138.622C184.05 141.366 185.593 141.887 188.558 141.887C191.879 141.887 194.011 141.2 194.011 139C194.011 137.059 193.342 132.942 192.872 130.292L195.646 129.321C195.979 131.215 196.24 132.871 196.43 134.338C196.717 135.853 197.307 136.846 198.659 136.846H199.015C199.309 136.848 199.498 137.322 199.498 137.96ZM188.8 128.093L186.617 126.365C187.21 125.465 187.827 124.661 188.61 123.979L190.721 125.802C190.199 126.673 189.535 127.383 188.8 128.093Z" fill="white"/>
<path id="Vector_18" d="M204.242 137.96V138.883C204.242 139.523 204.029 139.996 203.764 139.996H199.019C198.758 139.996 198.541 139.519 198.541 138.883V137.96C198.541 137.322 198.732 136.849 199.019 136.849H203.764C204.053 136.849 204.242 137.322 204.242 137.96Z" fill="white"/>
<path id="Vector_19" d="M208.986 137.96V138.883C208.986 139.523 208.773 139.996 208.508 139.996H203.767C203.507 139.996 203.289 139.519 203.289 138.883V137.96C203.289 137.322 203.48 136.849 203.767 136.849H208.512C208.797 136.849 208.986 137.322 208.986 137.96Z" fill="white"/>
<path id="Vector_20" d="M213.727 137.96V138.883C213.727 139.523 213.514 139.996 213.249 139.996H208.505C208.244 139.996 208.026 139.519 208.026 138.883V137.96C208.026 137.322 208.218 136.849 208.505 136.849H213.249C213.542 136.849 213.727 137.322 213.727 137.96Z" fill="white"/>
<path id="Vector_21" d="M212.781 138.883V137.96C212.781 137.322 212.973 136.848 213.26 136.848H214.896C217.079 136.848 219.166 136.423 219.166 134.979C219.166 133.559 218.953 131.5 218.592 129.299L221.415 128.353C221.818 131.24 222.009 133.606 222.009 135.428C222.009 138.032 219.33 139.996 214.892 139.996H213.255C212.996 139.996 212.781 139.523 212.781 138.883ZM214.893 142.552L216.98 144.35C216.482 145.226 215.794 145.912 215.083 146.622L212.924 144.942C213.517 144.017 214.109 143.262 214.893 142.552ZM219.281 142.743L221.322 144.542C220.823 145.441 220.159 146.127 219.448 146.789L217.289 145.133C217.881 144.232 218.475 143.451 219.281 142.741V142.743Z" fill="white"/>
<path id="Vector_22" d="M225.877 139.995C226.09 138.174 226.185 136.587 226.185 134.032C226.185 131.287 226.089 127.406 225.877 120.898L228.771 120.259C228.937 126.933 229.032 131.311 229.032 134.458C229.032 137.061 228.936 138.812 228.723 140.303L225.877 139.995Z" fill="white"/>
<path id="Vector_23" d="M72.3488 82.9621C74.0071 82.7153 75.6654 82.4805 77.3237 82.2578L76.4339 82.3771C78.2038 82.1391 79.9759 81.9165 81.7503 81.709C83.5247 81.5016 85.3006 81.3063 87.0782 81.1231C88.0846 81.02 89.0914 80.922 90.0985 80.8291C90.9789 80.805 91.8166 80.4454 92.4394 79.8241C93.0622 79.2028 93.4228 78.3671 93.4469 77.4888L93.3273 76.6002C93.173 76.043 92.8763 75.5353 92.4663 75.1267L91.7889 74.6046C91.2763 74.3049 90.6927 74.1474 90.0985 74.1484C87.6589 74.3743 85.2222 74.6269 82.7883 74.9062C80.0726 75.218 77.3619 75.5616 74.6564 75.9369C73.294 76.124 71.9327 76.3187 70.5722 76.521C69.7475 76.7867 69.0405 77.3294 68.5718 78.0566C68.3307 78.4275 68.1933 78.8558 68.1738 79.2973C68.0735 79.74 68.0943 80.2015 68.2341 80.6335L68.5718 81.4313C68.8628 81.9266 69.2761 82.3393 69.7724 82.63L70.5722 82.966C71.155 83.1253 71.7699 83.1253 72.3527 82.966L72.3488 82.9621Z" fill="white"/>
<path id="Vector_24" d="M125.888 37.1614C127.546 36.9145 129.204 36.6794 130.863 36.4561L129.973 36.5754C131.743 36.3387 133.515 36.116 135.289 35.9073C137.064 35.6986 138.839 35.5036 140.615 35.3223C141.622 35.2192 142.629 35.1212 143.637 35.0283C144.296 35.0384 144.943 34.847 145.49 34.4799C146.037 34.1128 146.459 33.5875 146.698 32.9745C146.906 32.5787 147.006 32.1347 146.985 31.688L146.864 30.7995C146.71 30.2421 146.414 29.7342 146.003 29.3259L145.326 28.8039C144.814 28.5042 144.23 28.3467 143.637 28.3477C141.197 28.5742 138.76 28.8268 136.325 29.1054C133.609 29.4178 130.898 29.7614 128.193 30.1362C126.831 30.322 125.47 30.5167 124.11 30.7203C123.284 30.9857 122.576 31.5292 122.107 32.2578C121.866 32.6288 121.729 33.057 121.709 33.4985C121.609 33.9412 121.629 34.4027 121.769 34.8346L122.107 35.6325C122.398 36.1275 122.811 36.5399 123.308 36.8302L124.108 37.1671C124.691 37.3265 125.305 37.3265 125.888 37.1671V37.1614Z" fill="white"/>
<path id="Vector_25" d="M36.6519 85.5303C36.6407 85.3054 36.6497 85.0799 36.6787 84.8565L36.5591 85.7441C36.6095 85.3852 36.706 85.0343 36.8461 84.7L36.5084 85.4979C36.6734 85.1144 36.8859 84.7531 37.1408 84.4223L36.6175 85.098C36.9023 84.7333 37.2317 84.4057 37.5981 84.1226L36.9198 84.6456C37.4274 84.2617 37.9819 83.9439 38.5701 83.6998L37.7703 84.0367C38.9116 83.5595 40.14 83.2875 41.3646 83.1224L40.4739 83.2417C42.0488 83.0332 43.6443 83.0332 45.2192 83.2417L44.3285 83.1224C45.6611 83.3018 47.0139 83.6063 48.2567 84.1283L47.4569 83.7952C47.9331 83.9907 48.383 84.2446 48.7963 84.5511L48.1218 84.0233C48.3719 84.2142 48.5969 84.4358 48.7915 84.6828L48.2682 84.0071C48.4174 84.2016 48.5417 84.4138 48.6384 84.6389L48.3007 83.8401C48.3883 84.0546 48.4497 84.2789 48.4834 84.5082L48.3638 83.6196C48.3995 83.9011 48.3979 84.1861 48.359 84.4671L48.4786 83.5795C48.4145 83.9916 48.2978 84.3938 48.1313 84.7763L48.4691 83.9785C48.1572 84.7057 47.7267 85.3719 47.2942 86.0323C46.8618 86.6927 46.4189 87.3265 45.9587 87.9525C45.6959 88.3133 45.4277 88.6702 45.1541 89.0234L45.6774 88.3476C44.3693 90.035 42.9485 91.6325 41.4249 93.1291C40.9944 93.5509 40.5559 93.9645 40.1094 94.3698C39.6318 94.8324 39.3088 95.4308 39.1847 96.0833C39.0606 96.7357 39.1413 97.4105 39.4158 98.0156C39.5493 98.4277 39.7876 98.7983 40.1075 99.0911L40.7858 99.6132C41.298 99.913 41.8814 100.071 42.4753 100.069L43.366 99.9501C43.9246 99.7961 44.4336 99.5002 44.8432 99.0911C46.8343 97.2828 48.6673 95.3083 50.3222 93.1892C51.3133 91.917 52.2748 90.6277 53.1559 89.2763C53.5326 88.7235 53.8686 88.1443 54.1614 87.5431C54.4149 86.9953 54.678 86.4236 54.8311 85.8348C54.8712 85.6893 54.9031 85.5418 54.9268 85.3929C54.9938 84.9624 55.0837 84.4728 55.0837 84.0205C55.0667 83.587 55.0175 83.1554 54.9363 82.7292C54.9134 82.5673 54.8766 82.4076 54.8263 82.252C54.6935 81.8597 54.5337 81.4771 54.348 81.1067C54.2893 80.9874 54.2218 80.8726 54.1461 80.7632C53.8538 80.3131 53.512 79.897 53.1272 79.5225C52.7261 79.1565 52.2943 78.8254 51.8366 78.5328C51.5991 78.3822 51.3517 78.2476 51.0962 78.13C50.6006 77.8991 50.0935 77.6853 49.5788 77.4992C48.9412 77.2724 48.2896 77.0865 47.6281 76.9428C46.6743 76.7393 45.7097 76.5899 44.7389 76.4952C44.0511 76.4248 43.3599 76.3936 42.6686 76.4016C41.9786 76.4088 41.2896 76.4556 40.605 76.5419C39.6285 76.6489 38.6592 76.8136 37.7024 77.0353C36.8031 77.2587 35.965 77.5937 35.1193 77.962C34.8202 78.0905 34.5294 78.2374 34.2487 78.402C33.753 78.71 33.2796 79.0522 32.8318 79.4261C32.5902 79.617 32.3643 79.827 32.1564 80.0541C31.7681 80.4813 31.4161 80.94 31.104 81.4255C30.8007 81.9027 30.5941 82.44 30.3827 82.9611C30.2684 83.2376 30.1844 83.5256 30.132 83.8201C30.0363 84.3717 29.9349 84.9653 29.9627 85.5294C29.9527 86.187 30.1444 86.8319 30.5122 87.3778C30.88 87.9237 31.4063 88.3443 32.0205 88.5834C32.4176 88.7914 32.8631 88.8903 33.3111 88.8697L34.2008 88.7504C34.7597 88.597 35.2688 88.301 35.678 87.8915L36.2023 87.2158C36.5023 86.7042 36.6602 86.122 36.6596 85.5294L36.6519 85.5303Z" fill="white"/>
<path id="Vector_26" d="M216.04 24.5086C216.672 31.5373 217.51 38.5438 218.556 45.528C219.552 52.2335 220.742 58.9062 222.124 65.5462C222.511 67.4034 222.913 69.2578 223.33 71.1093C223.67 72.622 224.032 74.1289 224.243 75.6665L224.124 74.7789C224.302 76.115 224.377 77.4674 224.203 78.8064L224.323 77.9188C224.231 78.6288 224.048 79.3242 223.779 79.9879L224.117 79.19C223.905 79.6888 223.632 80.1594 223.304 80.5911L223.827 79.9154C223.523 80.3016 223.175 80.6505 222.788 80.9547L223.467 80.4327C223.016 80.7747 222.525 81.0603 222.005 81.283L222.804 80.9461C221.885 81.3326 220.912 81.5474 219.928 81.6848L220.817 81.5655C219.401 81.7564 217.967 81.8079 216.543 81.8776C214.918 81.9559 213.291 82.0122 211.664 82.0465C208.431 82.1146 205.198 82.0939 201.964 81.9845C200.157 81.9209 198.352 81.8318 196.548 81.7173L199.777 85.9461C199.821 85.8202 199.872 85.6961 199.919 85.573L199.582 86.3718C199.768 85.947 200.004 85.5459 200.286 85.1769L199.762 85.8526C200.164 85.3478 200.627 84.8939 201.139 84.5012L200.462 85.0232C201.507 84.2197 202.679 83.605 203.836 82.979C205.271 82.203 206.623 81.3737 207.875 80.3219C209.19 79.2187 210.296 77.8091 211.16 76.3336C212.042 74.8143 212.712 73.1827 213.153 71.4834C214.162 67.62 213.967 63.6393 213.267 59.7445C212.615 56.1092 211.489 52.5532 210.344 49.0468C209.035 45.0307 207.568 41.0707 205.944 37.1666C205.677 36.3438 205.133 35.6386 204.404 35.171C203.687 34.752 202.629 34.5745 201.821 34.8341C201.014 35.0937 200.229 35.5976 199.821 36.3687C199.429 37.1065 199.151 38.1343 199.483 38.9456C202.008 45.0135 204.234 51.2514 205.922 57.6047C206.407 59.3826 206.781 61.1885 207.044 63.0123L206.924 62.1247C207.2 64.2005 207.277 66.3087 207.006 68.3893L207.126 67.5008C206.922 69.0523 206.514 70.5703 205.914 72.0159L206.252 71.2181C205.771 72.3572 205.148 73.4314 204.399 74.4153L204.922 73.7396C204.299 74.5414 203.58 75.2635 202.78 75.8898L203.457 75.3677C202.234 76.3059 200.843 76.9902 199.497 77.7327C198.833 78.0884 198.188 78.479 197.565 78.9028C196.771 79.4544 195.968 80.048 195.321 80.7762C194.429 81.7598 193.748 82.9151 193.32 84.171C192.974 85.1616 193.305 86.2897 193.919 87.0828C194.589 87.9418 195.466 88.3302 196.549 88.3989C201.86 88.7406 207.18 88.844 212.508 88.7091C215.048 88.6432 217.61 88.5869 220.138 88.3273C221.451 88.1928 222.802 88.0315 224.056 87.5944C225.534 87.078 226.873 86.3584 228.005 85.2609C229.057 84.2378 229.727 83.0343 230.269 81.6905C230.713 80.5796 230.878 79.3561 230.966 78.1727C231.028 77.2047 231 76.2331 230.881 75.2704C230.74 74.024 230.547 72.789 230.288 71.5578C229.766 69.0936 229.183 66.6428 228.666 64.1776C228.131 61.6237 227.625 59.0643 227.147 56.4996C226.19 51.3516 225.346 46.1833 224.616 40.9946C224.525 40.3495 224.436 39.7034 224.349 39.0563L224.468 39.9448C223.931 35.9491 223.461 31.9452 223.061 27.9329C222.947 26.7921 222.839 25.651 222.737 24.5096C222.757 24.0626 222.658 23.6183 222.45 23.2221C222.316 22.8101 222.077 22.4398 221.757 22.1475C221.176 21.5681 220.226 21.132 219.39 21.1692C218.523 21.2074 217.626 21.4918 217.022 22.1475C216.448 22.7668 215.963 23.6382 216.042 24.5096L216.04 24.5086Z" fill="white"/>
<path id="Vector_27" d="M181.027 29.2877C181.861 33.1907 182.996 37.0235 184.422 40.7518C185.933 44.7396 187.75 48.6057 189.855 52.316C190.973 54.2712 192.173 56.1746 193.455 58.0261L196.346 53.0003C189.269 52.9728 182.229 54.0309 175.474 56.1374C173.816 56.6566 172.069 57.17 170.559 58.0462C169.75 58.5129 169.002 59.0767 168.33 59.7249C167.733 60.3042 167.168 60.9885 166.818 61.7463C166.607 62.2034 166.371 62.6911 166.284 63.196C166.124 64.1227 166.092 64.7373 166.295 65.665C166.417 66.1894 166.622 66.6909 166.904 67.15C167.193 67.6425 167.562 68.0831 167.997 68.4537C168.881 69.1733 169.868 69.7249 171.007 69.9225C171.925 70.0848 172.857 70.1567 173.789 70.1372C176.767 70.0752 179.766 69.6305 182.737 70.0122L181.847 69.8929C182.79 70.0085 183.714 70.2483 184.594 70.6058L183.794 70.2689C184.368 70.5125 184.91 70.8239 185.409 71.1966L184.731 70.6746C185.194 71.0298 185.612 71.4404 185.975 71.8971L185.45 71.2205C185.787 71.6566 186.069 72.1331 186.287 72.6387L185.95 71.8408C186.2 72.4366 186.369 73.0627 186.455 73.7028L186.334 72.8152C186.428 73.5711 186.423 74.3358 186.32 75.0905L186.44 74.2029C186.314 75.0829 186.077 75.9434 185.733 76.7635L186.071 75.9657C185.712 76.8183 185.245 77.6219 184.683 78.3574L185.206 77.6816C184.646 78.394 183.999 79.0331 183.279 79.5837L183.957 79.0617C182.903 79.857 181.751 80.5148 180.53 81.0191L181.33 80.6822C178.96 81.6662 176.426 82.1644 173.892 82.507L174.783 82.3877C170.793 82.9212 166.704 83.2715 162.693 82.7504L163.584 82.8697C161.685 82.6299 159.826 82.1422 158.055 81.419L158.855 81.7559C157.256 81.0759 155.75 80.1945 154.375 79.1333L155.052 79.6553C153.568 78.5011 152.235 77.1664 151.083 75.6822L151.607 76.3589C150.365 74.7507 149.334 72.9909 148.54 71.1222L148.877 71.92C148.085 70.0489 147.543 68.0819 147.265 66.0697L147.385 66.9582C147.122 64.9201 147.127 62.8563 147.401 60.8196L147.282 61.7072C147.6 59.3946 148.225 57.1343 149.139 54.9854L148.801 55.7833C149.761 53.5386 151.004 51.4249 152.499 49.493L151.975 50.1687C153.472 48.2377 155.208 46.5041 157.141 45.0093C157.737 44.3624 158.085 43.526 158.122 42.6481C158.122 41.8283 157.758 40.8501 157.141 40.286C156.503 39.701 155.665 39.2677 154.774 39.3078L153.883 39.4271C153.324 39.5807 152.815 39.8767 152.406 40.286C150.9 41.4461 149.514 42.7531 148.269 44.1875C146.836 45.8187 145.567 47.5861 144.48 49.4643C143.417 51.3354 142.546 53.3086 141.879 55.3538C141.21 57.4019 140.82 59.5216 140.611 61.6642C140.402 63.7849 140.533 65.8635 140.829 67.9698C141.076 69.7184 141.525 71.4325 142.168 73.0777C142.902 74.9559 143.772 76.7712 144.899 78.449C146.004 80.1199 147.294 81.6614 148.745 83.0443C151.761 85.8712 155.462 87.9613 159.505 88.9004C164.18 89.9875 168.989 89.7699 173.717 89.2077C175.941 88.9434 178.175 88.6408 180.342 88.0625C181.286 87.8129 182.213 87.5014 183.116 87.13C184.25 86.6595 185.361 86.1671 186.396 85.5009C188.334 84.2526 189.992 82.6798 191.179 80.6918C192.292 78.8012 192.944 76.6763 193.082 74.4883C193.139 73.4215 193.046 72.352 192.804 71.3111C192.723 70.9359 192.61 70.5682 192.467 70.2117C192.221 69.5999 191.974 68.9796 191.625 68.4174C191.063 67.4895 190.344 66.666 189.5 65.9838C188.976 65.5734 188.461 65.1639 187.874 64.8385C187.275 64.5219 186.655 64.2489 186.018 64.0215C185.101 63.6799 184.15 63.5215 183.185 63.3926C182.182 63.2551 181.172 63.1856 180.16 63.1846C178.342 63.1846 176.534 63.3506 174.722 63.427C173.861 63.4632 173 63.5062 172.144 63.3993L173.035 63.5186C172.633 63.4689 172.239 63.3682 171.862 63.2189L172.662 63.5549C172.448 63.4631 172.245 63.3469 172.057 63.2084L172.735 63.7314C172.572 63.6031 172.425 63.4554 172.298 63.2914L172.821 63.9672C172.717 63.8252 172.628 63.6733 172.554 63.5138L172.892 64.3117C172.82 64.1435 172.769 63.9673 172.741 63.7868L172.86 64.6743C172.84 64.499 172.84 64.3219 172.86 64.1466L172.741 65.0341C172.773 64.8101 172.833 64.5909 172.918 64.3814L172.581 65.1792C172.709 64.8879 172.873 64.613 173.067 64.3604L172.543 65.0361C172.882 64.6116 173.272 64.2307 173.705 63.9023L173.028 64.4243C173.61 63.9832 174.245 63.6143 174.917 63.3258L174.117 63.6627C175.833 62.9479 177.657 62.4277 179.448 61.9343C181.298 61.4253 183.165 60.9968 185.05 60.6488C186.118 60.4522 187.19 60.2823 188.265 60.1391L187.375 60.2584C190.352 59.8626 193.352 59.6693 196.355 59.6801C196.938 59.6766 197.51 59.5224 198.015 59.2325C198.52 58.9426 198.941 58.527 199.237 58.0261C199.811 57.0555 199.907 55.6163 199.237 54.6543C196.885 51.2618 194.807 47.6874 193.024 43.9652C192.514 42.8975 192.028 41.8184 191.566 40.7279L191.902 41.5258C190.412 38.0045 189.184 34.3785 188.229 30.6773C187.959 29.6294 187.711 28.5764 187.485 27.5183C187.316 26.7261 186.631 25.9216 185.947 25.5217C185.228 25.1027 184.171 24.9252 183.364 25.1848C182.556 25.4444 181.772 25.9483 181.362 26.7204C180.937 27.509 180.817 28.4261 181.025 29.2973L181.027 29.2877Z" fill="white"/>
<path id="Vector_28" d="M218.541 0.456201L217.569 1.10041L214.928 2.85266L211.021 5.44L206.255 8.60569L201.034 12.0682L195.764 15.5641L190.853 18.8224L186.714 21.5691L183.736 23.5447L182.32 24.4838L182.259 24.5248C181.877 24.7265 181.554 25.0222 181.319 25.3838C181.034 25.7212 180.826 26.1175 180.713 26.5442C180.599 26.9708 180.581 27.4174 180.66 27.8518C180.679 28.2933 180.816 28.7216 181.057 29.0925C181.518 29.8064 182.205 30.4334 183.058 30.6281L183.948 30.7474C184.542 30.748 185.126 30.5905 185.639 30.2912L186.609 29.647L189.251 27.8948L193.157 25.3036L197.925 22.1417L203.145 18.6783L208.415 15.1833L213.327 11.9298L217.465 9.185L220.443 7.20942L221.859 6.27031L221.921 6.22927C222.302 6.0276 222.625 5.7319 222.86 5.37033C223.155 5.04932 223.361 4.65778 223.46 4.23365C223.598 3.80306 223.619 3.34342 223.519 2.90229C223.5 2.46083 223.363 2.03251 223.122 1.66159C222.661 0.948663 221.974 0.32545 221.121 0.126938L220.232 5.30601e-06C219.638 -0.00105379 219.054 0.156454 218.542 0.456201H218.541Z" fill="white"/>
<path id="Vector_29" d="M110.165 43.6151C108.826 46.5902 107.413 49.5297 105.927 52.4336C105.167 53.9119 104.396 55.3826 103.624 56.8543C103.164 57.7323 102.704 58.6107 102.245 59.4894C101.806 60.3321 101.414 61.2235 100.835 61.9832L101.359 61.3065C101.188 61.5233 100.996 61.7222 100.785 61.9001L101.463 61.3781C101.308 61.4986 101.14 61.6019 100.963 61.6864L101.762 61.3495C101.601 61.4169 101.431 61.4643 101.258 61.4907L102.149 61.3714C102.009 61.3848 101.869 61.3848 101.729 61.3714L102.619 61.4907C102.418 61.4618 102.222 61.4089 102.034 61.3332L102.834 61.6701C102.572 61.5524 102.324 61.4054 102.095 61.2321L102.773 61.7541C102.278 61.3544 101.835 60.8947 101.454 60.3855L101.978 61.0622C100.977 59.7442 100.204 58.2544 99.5602 56.735L99.8979 57.5329C98.57 54.3615 97.3712 50.3664 94.0754 48.6418C89.7817 46.3962 85.2374 48.8957 81.1714 50.4418C71.7364 54.0274 62.1675 57.3134 52.3699 59.7738C46.879 61.168 41.3141 62.2542 35.7013 63.0273L36.5911 62.908C31.2087 63.6276 25.6962 64.1888 20.2822 63.4806L21.1719 63.5999C19.026 63.3069 16.9261 62.8078 14.9228 61.9774L15.7226 62.3143C14.0584 61.6161 12.4905 60.7088 11.0567 59.6144L11.7341 60.1364C10.5753 59.2393 9.53199 58.203 8.62767 57.0509L9.15098 57.7276C8.39673 56.7446 7.76842 55.6715 7.28063 54.5333L7.61835 55.3321C7.1553 54.199 6.83553 53.0128 6.66643 51.8008L6.78602 52.6817C6.60502 51.217 6.61305 49.7352 6.80994 48.2725L6.69035 49.1601C6.97736 47.0604 7.59921 45.0247 8.41241 43.0673L8.07469 43.8651C8.70765 42.3879 9.43628 40.9533 10.256 39.5704C11.1438 38.0634 10.6511 35.8416 9.05436 35.0008C7.45762 34.16 5.41889 34.5895 4.47367 36.1986C2.58323 39.4158 0.981716 42.9613 0.344554 46.6548C-0.373929 50.8236 -0.0218627 54.9723 1.90493 58.7898C5.1271 65.1718 12.2096 69.0189 19.0892 70.0048C23.1953 70.5936 27.2824 70.5583 31.4077 70.1804C35.5081 69.8043 39.5961 69.226 43.6477 68.4978C51.3137 67.112 58.8592 65.1107 66.2785 62.7534C70.0306 61.5575 73.7618 60.2739 77.4613 58.9282C79.2637 58.2735 81.0614 57.6054 82.8542 56.924C84.672 56.2359 86.46 55.4666 88.294 54.8377C88.9465 54.6086 89.6192 54.4412 90.3031 54.3376L89.4134 54.4569C89.9207 54.3869 90.4347 54.3782 90.9441 54.4311L90.0544 54.3118C90.4582 54.3641 90.8533 54.4697 91.2292 54.6258L90.4294 54.2889C90.7531 54.4347 91.0584 54.6179 91.3392 54.8348L90.6609 54.3118C91.0254 54.6094 91.3535 54.9486 91.6387 55.3225L91.1144 54.6468C91.8865 55.6718 92.4184 56.8524 92.9168 58.0263L92.5801 57.2284C93.4688 59.3338 94.2543 61.4831 95.4856 63.4224C96.8948 65.6413 99.011 68.0855 101.895 68.0674C102.703 68.0559 103.498 67.8676 104.224 67.5158C104.95 67.1641 105.59 66.6574 106.098 66.0317C107.18 64.7127 107.873 63.1685 108.658 61.6615C109.856 59.371 111.064 57.0929 112.232 54.79C113.536 52.2189 114.769 49.6153 115.951 46.9869C116.334 46.1423 116.545 45.3406 116.289 44.4101C116.075 43.6351 115.475 42.7953 114.751 42.4135C113.973 42.0041 113.029 41.7989 112.168 42.0766C111.389 42.3286 110.515 42.8354 110.166 43.6122L110.165 43.6151Z" fill="white"/>
<path id="Vector_30" d="M133.323 48.0319C133.15 48.5848 132.951 49.1285 132.725 49.663L133.063 48.8651C132.517 50.168 131.804 51.3952 130.944 52.5166L131.467 51.8409C130.798 52.71 130.021 53.4911 129.155 54.1657L129.832 53.6437C129.107 54.197 128.315 54.6565 127.475 55.0113L128.276 54.6744C126.688 55.3425 124.991 55.6632 123.316 56.0325C122.486 56.2148 121.657 56.4143 120.848 56.6739C120.178 56.8896 119.535 57.1644 118.889 57.4374C118.499 57.6052 118.12 57.7964 117.753 58.01C117.142 58.3669 116.589 58.8031 116.031 59.2402C115.669 59.5257 115.33 59.838 115.016 60.1745C114.537 60.7052 114.09 61.2635 113.676 61.8466C113.41 62.2112 113.164 62.5891 112.931 62.9757C111.94 64.622 111.198 66.4019 110.383 68.1379C109.541 69.9369 108.582 71.6691 107.408 73.2773C107.266 73.4729 107.121 73.6657 106.973 73.8576L107.496 73.1809C106.325 74.7069 104.964 76.0782 103.446 77.2618L104.123 76.7398L103.971 76.8553C103.394 77.1798 102.932 77.6732 102.646 78.2686C102.36 78.864 102.264 79.5327 102.372 80.1842C102.392 80.6255 102.529 81.0537 102.769 81.4249L103.293 82.1006C103.703 82.5101 104.212 82.8061 104.771 82.9595L105.661 83.0788C106.255 83.0796 106.838 82.9225 107.351 82.6236C108.588 81.6883 109.761 80.7091 110.817 79.5695C111.894 78.4014 112.879 77.1519 113.763 75.8322C114.524 74.6937 115.206 73.5036 115.801 72.2704C116.385 71.0736 116.914 69.852 117.491 68.6523C118.11 67.363 118.782 66.086 119.659 64.9493L119.135 65.626C119.63 64.9818 120.205 64.4027 120.845 63.9024L120.167 64.4244C120.84 63.9188 121.575 63.5006 122.354 63.1799L121.554 63.5168C124.047 62.4746 126.793 62.3028 129.331 61.4028C129.905 61.1986 130.468 60.9571 131.025 60.7119C131.335 60.5754 131.639 60.4255 131.935 60.2604C132.725 59.8205 133.448 59.2622 134.147 58.6924C134.661 58.2721 135.141 57.8119 135.582 57.3162C136.217 56.6018 136.803 55.8452 137.335 55.0514C137.788 54.3744 138.19 53.665 138.538 52.9289C139.024 51.9199 139.439 50.8787 139.782 49.8128C139.922 49.3809 139.942 48.9194 139.842 48.4767C139.822 48.0353 139.685 47.6071 139.445 47.236C138.976 46.509 138.269 45.9664 137.444 45.7004L136.553 45.5811C135.959 45.5806 135.376 45.7381 134.863 46.0373L134.186 46.5603C133.776 46.9688 133.479 47.4766 133.325 48.0338L133.323 48.0319Z" fill="white"/>
</g>
</g>
</g>
<defs>
<clipPath id="clip0_395_640">
<rect width="231" height="147" fill="white"/>
</clipPath>
</defs>
</svg>
